<?xml version="1.0" standalone="no"?>
<!DOCTYPE svg PUBLIC "-//W3C//DTD SVG 20010904//EN"
 "http://www.w3.org/TR/2001/REC-SVG-20010904/DTD/svg10.dtd">
<svg version="1.0" xmlns="http://www.w3.org/2000/svg"
 width="2239.000000pt" height="2239.000000pt" viewBox="0 0 2239.000000 2239.000000"
 preserveAspectRatio="xMidYMid meet">
<metadata>
Created by potrace 1.11, written by Peter Selinger 2001-2013
</metadata>
<g transform="translate(0.000000,2239.000000) scale(0.100000,-0.100000)"
fill="#000000" stroke="none">
<path d="M10778 22385 c-2 -1 -70 -6 -153 -9 -82 -4 -166 -9 -185 -10 -19 -2
-75 -7 -125 -11 -49 -3 -106 -8 -125 -10 -19 -2 -66 -6 -105 -9 -38 -4 -83 -9
-100 -11 -16 -2 -52 -7 -80 -10 -117 -13 -141 -16 -165 -20 -14 -3 -47 -7 -75
-10 -55 -7 -250 -37 -325 -50 -14 -2 -41 -7 -60 -9 -19 -3 -46 -8 -60 -11 -48
-10 -135 -26 -155 -30 -21 -3 -65 -12 -100 -19 -11 -3 -76 -16 -145 -31 -69
-14 -170 -37 -225 -51 -55 -13 -109 -26 -120 -29 -111 -23 -460 -124 -735
-213 -113 -36 -207 -67 -210 -68 -3 0 -12 -4 -20 -7 -8 -4 -67 -25 -130 -47
-111 -39 -145 -52 -182 -71 -10 -5 -22 -9 -27 -9 -5 0 -22 -5 -38 -12 -15 -6
-30 -12 -33 -13 -3 -1 -22 -9 -44 -18 -21 -9 -41 -17 -45 -17 -3 -1 -24 -9
-46 -20 -22 -11 -48 -19 -57 -20 -10 0 -18 -4 -18 -10 0 -5 -6 -10 -13 -10
-21 0 -316 -131 -570 -254 -86 -42 -161 -76 -166 -76 -5 0 -11 -4 -13 -8 -1
-5 -37 -25 -78 -45 -41 -20 -104 -53 -140 -73 -36 -20 -94 -52 -130 -71 -89
-48 -244 -136 -250 -143 -9 -9 -84 -51 -102 -57 -10 -3 -18 -9 -18 -13 0 -4
-18 -15 -40 -25 -22 -10 -40 -21 -40 -25 0 -5 -11 -11 -25 -14 -14 -4 -25 -11
-25 -16 0 -6 -5 -10 -12 -10 -12 0 -528 -341 -552 -365 -8 -8 -19 -15 -25 -15
-6 0 -11 -4 -11 -8 0 -5 -8 -13 -19 -18 -10 -5 -32 -19 -47 -32 -16 -12 -67
-50 -114 -85 -47 -34 -116 -87 -155 -117 -38 -29 -88 -67 -110 -84 -22 -17
-42 -34 -45 -37 -3 -3 -32 -28 -65 -55 -81 -65 -76 -61 -110 -90 -16 -14 -47
-38 -67 -54 -21 -15 -34 -30 -31 -34 3 -3 0 -6 -7 -6 -7 0 -20 -8 -29 -17 -9
-10 -47 -45 -86 -78 -82 -71 -65 -55 -200 -180 -148 -137 -478 -466 -600 -599
-55 -60 -113 -123 -130 -141 -16 -18 -52 -59 -80 -90 -27 -32 -60 -69 -73 -82
-13 -12 -20 -23 -16 -23 3 0 -3 -8 -14 -17 -10 -10 -53 -58 -93 -108 -41 -49
-78 -95 -84 -101 -5 -6 -21 -26 -35 -44 -14 -18 -40 -49 -57 -69 -18 -20 -33
-39 -33 -43 0 -5 -8 -17 -17 -27 -21 -23 -29 -32 -68 -86 -17 -22 -32 -42 -35
-45 -3 -3 -17 -21 -30 -40 -13 -19 -29 -40 -35 -46 -5 -6 -28 -37 -50 -68 -22
-32 -57 -80 -77 -107 -21 -26 -38 -51 -38 -54 0 -3 -5 -11 -10 -18 -39 -47
-50 -62 -55 -78 -4 -11 -11 -19 -16 -19 -5 0 -9 -4 -9 -9 0 -7 -91 -148 -127
-197 -4 -5 -13 -19 -20 -30 -52 -86 -219 -354 -232 -374 -9 -14 -25 -41 -34
-60 -10 -19 -29 -53 -42 -75 -22 -36 -72 -125 -162 -290 -35 -63 -279 -555
-305 -615 -9 -19 -28 -61 -42 -93 -14 -31 -25 -58 -24 -60 1 -1 -5 -13 -12
-27 -8 -14 -15 -27 -15 -30 0 -3 -11 -27 -24 -55 -154 -337 -427 -1129 -526
-1525 -2 -8 -16 -60 -30 -115 -15 -55 -29 -111 -31 -125 -3 -14 -18 -79 -34
-145 -15 -66 -31 -133 -34 -150 -3 -16 -7 -41 -10 -55 -12 -54 -17 -76 -22
-110 -3 -19 -7 -37 -9 -40 -2 -3 -6 -26 -10 -50 -3 -25 -13 -76 -20 -115 -8
-38 -17 -88 -20 -110 -4 -22 -9 -53 -12 -70 -2 -16 -6 -39 -8 -50 -1 -11 -8
-58 -15 -105 -14 -94 -15 -102 -25 -179 -4 -30 -8 -62 -10 -72 -2 -10 -7 -49
-10 -86 -7 -72 -13 -124 -21 -188 -2 -21 -7 -66 -9 -100 -2 -33 -6 -88 -10
-122 -24 -280 -30 -448 -30 -903 1 -371 4 -496 20 -720 2 -36 7 -103 10 -150
3 -47 7 -98 9 -115 2 -16 7 -61 11 -100 11 -124 38 -355 50 -425 2 -14 6 -45
9 -70 3 -25 8 -56 10 -70 3 -14 10 -59 16 -100 6 -41 14 -86 16 -100 3 -14 11
-63 19 -110 8 -47 17 -95 20 -108 11 -50 15 -68 20 -103 3 -20 10 -50 15 -68
5 -17 9 -34 9 -36 0 -6 19 -101 36 -180 3 -11 7 -29 9 -40 2 -11 9 -40 16 -65
7 -25 13 -52 15 -60 8 -39 78 -307 105 -400 17 -58 33 -115 35 -128 3 -13 12
-42 19 -65 13 -39 96 -300 102 -322 3 -9 71 -202 89 -250 32 -90 51 -140 105
-280 34 -88 65 -167 70 -176 4 -9 28 -65 53 -125 25 -60 62 -145 82 -189 46
-98 84 -184 85 -190 1 -13 293 -581 310 -605 11 -16 20 -31 20 -35 0 -3 17
-37 39 -73 21 -37 49 -85 61 -107 43 -78 74 -130 80 -135 3 -3 12 -19 21 -35
20 -38 42 -76 52 -89 4 -6 36 -56 69 -111 34 -55 66 -101 70 -103 4 -2 8 -8 8
-13 0 -6 51 -84 112 -176 62 -91 120 -176 128 -189 32 -50 145 -199 152 -202
4 -2 8 -8 8 -14 0 -6 18 -32 40 -58 22 -26 40 -52 40 -58 0 -6 4 -12 8 -14 5
-1 27 -28 50 -58 23 -30 48 -62 55 -70 6 -8 30 -37 51 -65 22 -27 42 -52 45
-55 4 -3 19 -23 36 -45 16 -22 39 -50 50 -61 11 -12 34 -39 50 -60 17 -21 41
-50 55 -65 14 -15 38 -43 53 -63 16 -19 45 -53 65 -75 20 -21 62 -67 92 -102
147 -167 533 -559 699 -709 51 -47 108 -100 126 -117 17 -18 35 -33 38 -33 3
0 24 -17 45 -37 66 -64 113 -103 125 -103 6 0 8 -3 4 -6 -3 -3 15 -22 41 -42
26 -19 49 -38 52 -41 4 -6 98 -83 125 -104 6 -4 22 -17 36 -30 14 -12 38 -31
53 -42 16 -11 33 -25 40 -30 6 -6 31 -26 56 -45 25 -19 50 -39 56 -45 6 -5 22
-17 34 -25 12 -8 28 -19 34 -25 39 -34 138 -105 146 -105 6 0 10 -4 10 -8 0
-4 15 -16 33 -27 17 -10 38 -25 46 -33 8 -7 30 -24 50 -38 20 -13 55 -37 79
-54 23 -16 45 -30 48 -30 3 0 17 -11 32 -25 15 -14 30 -25 35 -25 4 0 32 -18
62 -40 30 -22 57 -40 61 -40 3 0 28 -16 54 -35 26 -19 53 -35 59 -35 6 0 11
-3 11 -8 0 -4 17 -16 38 -27 20 -11 39 -22 42 -25 11 -13 159 -100 168 -100 6
0 12 -3 14 -8 1 -4 48 -33 103 -65 55 -32 107 -62 115 -68 8 -5 29 -16 45 -24
17 -9 46 -25 65 -37 43 -25 159 -88 260 -140 41 -21 80 -42 85 -46 6 -5 23
-12 38 -16 15 -3 27 -11 27 -16 0 -6 4 -10 10 -10 5 0 72 -30 147 -66 174 -84
265 -126 278 -130 6 -1 42 -16 80 -34 39 -17 84 -37 100 -45 17 -7 51 -22 77
-34 26 -12 50 -21 53 -21 4 0 22 -7 41 -15 19 -8 49 -22 68 -30 19 -8 36 -15
39 -15 2 0 22 -8 43 -17 22 -9 41 -17 44 -18 8 -2 42 -16 65 -25 37 -15 299
-109 365 -130 36 -12 72 -24 80 -27 8 -4 17 -7 20 -7 3 -1 11 -5 18 -9 6 -5
12 -6 12 -3 0 3 17 -2 37 -10 20 -9 45 -18 55 -19 11 -2 63 -17 116 -34 196
-60 458 -134 517 -146 11 -2 47 -11 80 -19 33 -9 132 -32 220 -51 88 -19 178
-39 200 -45 22 -5 58 -12 80 -16 22 -4 45 -8 50 -10 6 -1 48 -9 95 -18 47 -8
94 -17 105 -19 11 -3 42 -8 69 -11 27 -4 52 -9 55 -11 4 -2 33 -6 66 -9 33 -4
67 -9 75 -11 8 -2 38 -7 65 -10 28 -4 59 -9 70 -10 11 -2 45 -6 75 -9 30 -4
66 -9 80 -11 14 -2 50 -7 80 -10 30 -4 66 -8 80 -10 14 -2 57 -7 95 -10 39 -3
93 -8 120 -10 153 -14 201 -18 420 -31 243 -16 1135 -8 1335 11 19 1 76 6 125
10 50 4 104 8 120 10 17 1 64 5 105 9 41 4 86 9 100 11 14 2 54 7 90 10 36 4
76 8 90 10 32 5 94 13 145 20 22 3 51 7 65 9 14 3 45 7 70 10 25 3 56 8 70 11
13 2 42 7 65 10 22 3 76 12 120 20 75 14 96 17 163 30 15 3 50 10 77 15 57 11
58 11 191 40 55 12 110 24 124 26 14 3 43 10 65 16 22 5 47 11 55 13 8 2 62
15 120 30 58 14 112 27 120 30 8 2 58 15 110 29 52 15 104 29 115 31 11 3 31
9 45 14 24 9 129 40 160 46 55 12 622 207 718 247 15 6 29 12 32 13 27 6 387
154 480 197 25 11 84 38 132 59 48 21 95 43 105 48 46 25 278 134 282 132 2
-2 7 1 10 6 3 5 38 25 76 43 39 19 139 71 223 117 84 46 157 83 162 83 5 0 10
4 12 8 3 7 120 76 191 111 15 7 27 17 27 22 0 5 5 9 10 9 6 0 40 18 76 40 36
22 68 40 70 40 3 0 10 5 17 10 7 6 84 57 172 113 88 56 165 105 170 109 6 5
42 30 80 56 134 91 240 166 253 179 8 7 23 18 35 24 11 7 26 16 31 21 10 8 73
55 156 118 18 14 59 45 90 70 31 25 72 56 90 70 38 28 69 54 111 90 16 14 41
34 55 45 14 11 31 25 38 31 6 6 45 39 86 73 197 165 417 369 670 621 107 108
233 238 280 289 47 51 101 110 120 131 62 66 163 183 216 249 10 13 26 31 35
40 8 9 53 63 100 121 46 58 86 107 89 110 3 3 17 21 31 40 15 19 36 46 48 59
11 13 21 27 21 30 0 3 10 17 22 31 23 26 81 100 108 140 8 12 36 49 61 83 58
78 279 397 279 402 0 5 61 97 70 105 3 3 14 22 25 43 11 20 23 37 27 37 5 0 8
5 8 10 0 6 9 23 19 38 27 38 75 116 76 122 0 3 9 19 21 35 20 29 151 253 221
380 19 33 41 77 50 98 9 20 20 37 25 37 4 0 8 9 8 19 0 11 4 21 9 23 7 3 227
443 274 548 8 19 33 75 56 123 23 49 41 95 41 103 0 8 5 14 11 14 5 0 8 4 5 8
-3 5 4 23 15 40 10 18 19 37 19 43 0 6 12 35 26 65 14 30 27 60 28 67 2 7 9
26 16 42 7 17 14 32 14 35 1 6 43 110 62 155 15 37 49 128 49 135 1 3 11 32
24 65 12 33 25 67 27 75 2 8 33 101 68 206 98 291 255 851 289 1034 3 14 12
57 21 95 9 39 18 81 20 95 2 14 11 57 19 95 9 39 18 84 20 100 3 17 12 66 21
110 8 44 17 98 21 120 3 22 12 78 20 125 7 47 17 109 20 139 4 30 8 61 10 70
5 28 14 95 19 136 6 48 16 137 21 185 2 19 7 64 10 100 3 36 8 81 10 100 7 59
18 208 31 440 16 278 9 1107 -11 1320 -2 19 -6 80 -10 135 -4 55 -8 114 -11
130 -2 17 -6 64 -10 105 -3 41 -8 83 -9 92 -2 9 -6 45 -10 80 -3 35 -8 74 -10
88 -2 14 -6 45 -10 70 -10 76 -26 194 -31 225 -3 17 -7 45 -10 64 -11 82 -54
315 -105 571 -5 25 -11 54 -13 65 -2 11 -9 38 -14 60 -6 22 -13 51 -16 65 -3
14 -15 66 -27 115 -11 50 -22 97 -24 105 -13 54 -100 368 -134 480 -23 74 -43
142 -45 150 -3 8 -5 16 -6 18 -2 1 -3 5 -4 10 -1 4 -5 13 -9 20 -5 6 -6 12 -3
12 3 0 -8 35 -23 78 -15 42 -28 80 -29 85 -1 8 -8 30 -72 207 -110 306 -242
629 -367 900 -51 110 -115 245 -123 260 -4 8 -45 89 -91 180 -46 91 -87 167
-91 168 -5 2 -8 8 -8 14 0 5 -9 23 -21 39 -11 16 -18 29 -14 29 3 0 -6 17 -20
37 -14 21 -25 41 -25 44 0 4 -36 68 -80 142 -44 75 -80 138 -80 142 0 3 -5 11
-10 18 -6 7 -57 86 -114 177 -98 158 -146 233 -164 255 -4 6 -25 37 -46 70
-44 67 -247 357 -256 365 -3 3 -44 57 -91 120 -47 64 -93 123 -102 132 -10 9
-17 19 -17 23 0 4 -6 12 -12 19 -7 7 -22 25 -33 40 -19 26 -28 38 -73 91 -9
11 -48 58 -87 105 -38 47 -79 95 -90 107 -11 11 -27 30 -35 41 -14 18 -89 103
-150 171 -14 15 -59 65 -100 111 -41 45 -179 186 -306 314 -228 229 -324 320
-529 501 -31 28 -64 57 -73 65 -18 17 -120 103 -161 136 -12 10 -39 34 -60 51
-20 18 -39 33 -43 33 -4 0 -15 8 -25 18 -24 24 -98 83 -208 167 -49 38 -92 72
-95 75 -3 4 -24 19 -48 34 -40 25 -76 53 -108 84 -8 7 -14 10 -14 5 0 -4 -4
-3 -8 2 -17 24 -504 355 -521 355 -6 0 -11 5 -11 10 0 6 -7 10 -15 10 -8 0
-15 5 -15 10 0 6 -4 10 -9 10 -8 0 -30 13 -171 103 -33 20 -64 37 -70 37 -5 0
-10 5 -10 10 0 6 -4 10 -9 10 -8 0 -47 22 -129 71 -41 24 -153 87 -287 160
-68 37 -575 290 -650 324 -89 41 -145 64 -150 64 -3 1 -20 8 -38 18 -17 9 -34
18 -37 18 -3 1 -23 9 -45 19 -22 10 -85 36 -140 58 -55 22 -111 45 -125 51
-14 6 -27 11 -30 12 -5 1 -151 56 -185 70 -11 5 -23 9 -27 10 -5 2 -10 4 -13
5 -3 1 -8 3 -12 5 -5 1 -17 5 -28 9 -74 28 -123 46 -325 112 -124 41 -232 76
-240 77 -8 2 -37 10 -65 19 -61 19 -153 47 -180 53 -11 3 -78 21 -150 40 -71
19 -140 37 -153 39 -13 3 -38 9 -55 15 -31 10 -341 80 -382 87 -37 6 -79 14
-125 24 -55 13 -83 18 -134 26 -22 3 -44 8 -47 10 -4 2 -27 6 -50 9 -24 3 -57
8 -72 11 -16 3 -38 7 -50 9 -31 3 -118 17 -142 21 -11 2 -40 7 -65 10 -45 5
-83 11 -130 19 -14 2 -50 7 -81 10 -31 3 -65 7 -75 9 -11 2 -57 7 -104 11 -47
4 -87 8 -90 10 -3 1 -48 6 -100 10 -52 4 -111 8 -130 10 -19 2 -80 6 -135 10
-55 4 -131 9 -170 11 -78 6 -992 14 -997 9z m577 -810 c83 -4 168 -8 190 -10
166 -11 233 -17 255 -20 14 -2 59 -7 100 -10 41 -4 89 -8 105 -11 17 -2 55 -6
85 -9 30 -4 69 -8 85 -10 39 -4 193 -25 225 -30 14 -3 43 -7 65 -10 22 -4 83
-13 135 -22 52 -8 105 -17 117 -18 12 -2 34 -6 50 -9 15 -4 40 -9 56 -11 15
-3 37 -7 50 -9 12 -3 49 -10 82 -16 132 -25 471 -103 650 -150 105 -28 197
-52 205 -54 8 -2 35 -10 60 -17 25 -7 50 -14 55 -15 66 -18 131 -39 240 -74
72 -23 135 -43 140 -44 6 -2 17 -5 25 -8 8 -3 51 -18 95 -33 44 -14 94 -33
112 -41 17 -8 35 -14 40 -14 14 0 319 -116 453 -173 14 -5 34 -12 45 -14 11
-2 22 -8 23 -13 2 -6 9 -10 15 -10 13 0 257 -105 369 -159 36 -17 70 -31 76
-31 5 0 15 -7 22 -15 7 -9 15 -13 17 -11 4 4 377 -181 508 -252 114 -62 271
-151 305 -172 8 -5 44 -26 80 -46 36 -21 67 -40 70 -43 3 -3 26 -17 53 -31 26
-13 47 -28 47 -32 0 -5 5 -8 11 -8 12 0 35 -14 294 -186 99 -65 186 -120 193
-122 6 -2 12 -8 12 -12 0 -5 15 -17 33 -26 17 -9 34 -20 37 -24 3 -4 40 -31
83 -60 42 -29 77 -56 77 -59 0 -3 12 -12 28 -18 15 -7 41 -26 59 -43 18 -16
35 -30 39 -30 4 0 14 -7 23 -15 9 -9 59 -48 111 -88 92 -69 110 -83 149 -117
9 -8 35 -28 56 -45 22 -16 49 -38 60 -48 11 -11 36 -31 55 -46 18 -14 46 -37
60 -51 15 -14 46 -41 71 -62 72 -59 207 -179 289 -258 21 -19 55 -51 76 -71
36 -33 163 -169 260 -278 22 -23 50 -55 64 -71 14 -15 43 -49 65 -76 22 -26
50 -58 63 -70 12 -13 22 -28 22 -34 0 -5 4 -10 9 -10 4 0 28 -26 53 -57 25
-32 55 -69 67 -83 11 -14 31 -38 43 -53 13 -15 28 -33 33 -40 6 -7 22 -28 36
-47 15 -19 36 -46 48 -59 11 -13 21 -27 21 -30 0 -3 10 -17 23 -31 25 -29 71
-89 106 -140 13 -19 27 -37 30 -40 4 -3 32 -41 62 -85 30 -44 57 -82 60 -85 3
-3 21 -27 39 -55 19 -27 37 -51 42 -53 4 -2 8 -8 8 -13 0 -6 17 -33 38 -62 20
-29 44 -64 51 -79 8 -16 18 -28 23 -28 4 0 8 -4 8 -10 0 -5 17 -35 39 -67 70
-104 121 -184 121 -189 0 -3 12 -24 28 -47 32 -50 28 -43 136 -227 46 -80 101
-175 120 -213 46 -86 60 -111 66 -117 3 -3 23 -41 45 -85 21 -44 46 -88 54
-97 8 -10 11 -18 8 -18 -5 0 58 -128 80 -164 4 -6 8 -13 9 -16 0 -3 18 -41 38
-85 173 -363 302 -674 436 -1045 23 -63 45 -124 50 -135 4 -11 14 -40 21 -65
7 -25 15 -49 18 -55 3 -5 6 -14 7 -20 1 -5 16 -53 34 -105 17 -52 33 -102 35
-110 2 -8 13 -46 25 -85 18 -60 63 -219 101 -360 6 -22 14 -53 19 -70 8 -26
34 -136 45 -185 1 -8 15 -64 29 -125 14 -60 28 -126 31 -145 3 -19 10 -48 15
-65 5 -16 11 -43 13 -60 3 -16 12 -68 21 -115 8 -47 18 -97 20 -113 3 -15 7
-35 10 -45 2 -9 7 -39 11 -66 3 -27 8 -52 10 -55 2 -3 6 -31 10 -61 4 -30 8
-64 10 -75 1 -11 6 -41 9 -65 3 -25 8 -56 11 -70 4 -24 9 -67 20 -167 3 -27 7
-61 10 -78 19 -141 39 -355 51 -555 3 -52 7 -117 9 -145 5 -62 5 -299 0 -379
-11 -178 -17 -265 -20 -296 -2 -19 -6 -71 -9 -115 -4 -44 -8 -91 -11 -105 -2
-14 -7 -54 -10 -90 -3 -36 -7 -76 -9 -90 -3 -14 -7 -56 -11 -95 -4 -38 -8 -72
-10 -75 -1 -3 -5 -32 -9 -65 -3 -33 -8 -69 -10 -80 -5 -28 -15 -93 -21 -140
-3 -22 -10 -62 -15 -90 -5 -27 -11 -61 -14 -75 -12 -77 -19 -117 -23 -135 -2
-11 -6 -31 -9 -45 -2 -14 -7 -36 -9 -50 -12 -60 -16 -77 -21 -105 -3 -16 -14
-70 -25 -120 -12 -49 -23 -99 -25 -110 -15 -71 -18 -82 -64 -265 -23 -91 -43
-172 -45 -180 -1 -8 -10 -41 -20 -72 -9 -32 -17 -61 -17 -65 0 -5 -5 -19 -10
-33 -5 -14 -25 -79 -45 -145 -39 -133 -163 -509 -187 -567 -9 -21 -16 -40 -16
-43 0 -3 -7 -22 -15 -42 -9 -20 -18 -48 -22 -62 -3 -14 -9 -30 -13 -36 -3 -5
-19 -44 -35 -85 -48 -127 -147 -364 -157 -377 -6 -7 -8 -13 -5 -13 3 0 -8 -27
-24 -60 -16 -33 -29 -62 -29 -65 0 -3 -14 -33 -30 -67 -17 -34 -30 -67 -30
-74 0 -6 -7 -17 -15 -24 -8 -6 -14 -15 -13 -18 2 -6 -71 -167 -92 -202 -5 -8
-37 -71 -72 -140 -34 -69 -66 -126 -70 -128 -5 -2 -8 -12 -8 -23 0 -10 -4 -19
-8 -19 -5 0 -16 -17 -25 -37 -16 -37 -74 -145 -116 -213 -11 -19 -24 -42 -28
-50 -4 -8 -22 -38 -40 -67 -18 -29 -33 -54 -33 -56 0 -5 -118 -200 -155 -257
-113 -173 -141 -216 -145 -225 -12 -25 -94 -140 -102 -143 -4 -2 -8 -8 -8 -13
0 -16 -285 -410 -302 -417 -4 -2 -8 -8 -8 -13 0 -5 -7 -17 -14 -26 -8 -10 -47
-58 -85 -108 -107 -136 -108 -138 -137 -170 -14 -16 -38 -46 -53 -65 -25 -34
-71 -87 -101 -119 -8 -9 -25 -29 -37 -45 -12 -15 -47 -56 -77 -90 -108 -120
-126 -141 -126 -148 0 -5 -7 -8 -15 -8 -8 0 -15 -5 -15 -11 0 -6 -15 -25 -32
-43 -18 -18 -56 -57 -84 -87 -44 -46 -157 -153 -245 -231 -14 -13 -55 -49 -90
-80 -71 -63 -85 -75 -154 -133 -51 -43 -77 -64 -128 -108 -38 -32 -289 -231
-337 -267 -47 -36 -103 -78 -115 -88 -6 -5 -24 -17 -40 -28 -17 -10 -32 -21
-35 -24 -5 -6 -234 -168 -261 -185 -9 -5 -45 -30 -80 -55 -35 -25 -72 -49 -81
-55 -9 -5 -69 -44 -132 -85 -64 -41 -128 -81 -143 -89 -16 -8 -30 -17 -33 -20
-9 -12 -128 -81 -138 -81 -6 0 -12 -4 -14 -8 -2 -8 -271 -164 -318 -185 -8 -4
-33 -18 -55 -31 -44 -26 -593 -302 -665 -334 -25 -11 -81 -36 -124 -56 -43
-20 -85 -36 -92 -36 -8 0 -14 -5 -14 -12 0 -6 -3 -9 -6 -6 -5 5 -51 -13 -173
-69 -18 -8 -39 -16 -45 -18 -6 -1 -22 -7 -36 -12 -14 -6 -50 -21 -80 -32 -30
-12 -64 -26 -75 -31 -30 -15 -464 -170 -483 -173 -10 -1 -21 -5 -27 -8 -13 -8
-153 -51 -160 -50 -3 1 -19 -6 -35 -14 -16 -8 -33 -15 -37 -15 -11 -1 -85 -20
-103 -27 -8 -3 -19 -7 -25 -9 -5 -1 -44 -12 -85 -24 -41 -11 -84 -23 -94 -25
-10 -3 -33 -9 -50 -14 -34 -11 -416 -107 -456 -115 -14 -2 -110 -22 -215 -44
-104 -22 -206 -43 -225 -45 -19 -3 -45 -8 -56 -11 -12 -2 -39 -7 -60 -10 -22
-4 -65 -11 -97 -17 -33 -6 -73 -12 -90 -14 -18 -2 -41 -6 -52 -8 -11 -3 -45
-8 -76 -11 -31 -4 -65 -8 -75 -10 -36 -7 -99 -16 -149 -21 -27 -4 -66 -8 -85
-10 -19 -3 -60 -7 -90 -10 -30 -3 -75 -7 -100 -10 -109 -11 -140 -14 -220 -20
-47 -4 -103 -8 -125 -10 -45 -4 -327 -18 -365 -18 -60 0 -333 16 -477 28 -151
12 -200 16 -238 21 -78 9 -111 13 -178 19 -37 4 -78 8 -89 10 -12 3 -42 7 -67
10 -25 3 -59 7 -76 10 -16 2 -48 6 -70 9 -22 3 -53 8 -70 11 -16 2 -47 7 -69
11 -21 3 -48 8 -60 10 -11 2 -39 7 -61 9 -55 7 -441 82 -544 106 -47 11 -92
21 -100 23 -9 1 -27 6 -41 9 -71 17 -166 39 -180 42 -10 2 -48 12 -86 24 -38
11 -80 22 -94 25 -31 7 -132 35 -270 76 -58 17 -121 36 -140 42 -48 14 -361
117 -380 125 -8 3 -19 7 -25 9 -15 3 -195 70 -230 85 -16 6 -35 13 -41 14 -10
3 -158 60 -234 92 -19 8 -48 21 -63 29 -16 8 -33 14 -38 14 -4 0 -32 11 -61
24 -29 13 -91 41 -138 61 -119 52 -191 86 -377 176 -89 44 -167 79 -172 79 -5
0 -11 3 -13 8 -1 4 -39 25 -83 47 -44 22 -82 42 -85 45 -3 3 -24 14 -47 24
-24 11 -43 24 -43 29 0 6 -3 7 -6 4 -4 -4 -19 2 -34 13 -16 11 -31 20 -35 20
-9 0 -364 207 -458 267 -37 24 -71 43 -76 43 -5 0 -11 3 -13 8 -1 4 -52 39
-113 77 -60 38 -112 72 -115 75 -3 3 -25 18 -50 35 -93 61 -275 189 -288 202
-7 7 -20 13 -28 13 -8 0 -12 4 -9 10 3 5 0 10 -8 10 -7 0 -22 8 -33 18 -10 9
-46 37 -79 61 -33 25 -61 48 -63 53 -2 4 -8 8 -13 8 -9 0 -144 103 -159 121
-3 3 -23 19 -45 35 -22 16 -49 37 -60 46 -24 20 -154 128 -175 145 -8 6 -35
29 -60 51 -25 21 -56 47 -69 58 -25 21 -45 38 -151 134 -180 163 -216 198
-327 316 -112 121 -281 313 -363 413 -19 24 -47 56 -62 72 -16 17 -28 34 -28
39 0 4 -4 10 -8 12 -7 3 -104 121 -162 198 -14 18 -32 41 -40 50 -8 10 -23 28
-33 39 -9 12 -17 25 -17 30 0 5 -7 15 -16 22 -9 8 -27 30 -39 49 -13 19 -31
44 -41 55 -11 11 -25 32 -33 48 -8 15 -18 27 -23 27 -4 0 -8 6 -8 14 0 8 -3
16 -7 18 -8 3 -61 71 -78 100 -28 48 -231 343 -237 346 -5 2 -8 8 -8 12 0 8
-47 84 -162 265 -21 33 -38 65 -38 72 0 6 -4 13 -8 15 -5 1 -20 23 -34 48 -14
25 -35 63 -48 85 -12 22 -48 85 -78 140 -31 55 -61 103 -66 107 -6 4 -8 8 -4
8 4 0 -6 22 -22 50 -16 28 -27 50 -23 50 3 0 -1 8 -9 18 -22 25 -243 478 -328
672 -40 91 -78 179 -85 195 -23 51 -156 387 -174 440 -10 28 -34 95 -53 150
-20 55 -46 129 -58 165 -12 36 -24 72 -27 80 -3 8 -7 20 -9 25 -2 6 -20 62
-40 125 -20 63 -44 144 -55 180 -44 158 -110 397 -113 415 -3 11 -5 20 -6 20
-1 0 -3 9 -5 19 -2 11 -18 79 -35 150 -50 210 -63 269 -66 291 -1 11 -16 88
-32 170 -17 83 -33 164 -35 180 -3 17 -12 73 -21 125 -8 52 -20 131 -26 175
-6 44 -13 91 -15 105 -8 55 -26 189 -30 231 -7 64 -15 139 -20 179 -2 19 -7
69 -10 110 -3 41 -8 93 -10 115 -2 22 -7 90 -11 150 -3 61 -8 133 -10 160 -4
60 -4 311 0 375 13 198 18 270 21 300 2 19 7 69 10 110 3 41 8 91 10 110 3 19
7 60 10 90 8 71 14 126 20 170 16 127 36 269 40 289 2 12 7 44 10 70 3 25 10
73 16 106 7 33 13 69 14 80 5 32 13 75 51 263 20 97 37 186 39 197 2 11 15 70
30 130 14 61 28 119 30 130 2 11 4 20 5 20 1 0 3 7 14 50 26 111 69 270 108
400 16 55 31 107 33 115 2 8 16 53 31 100 15 47 27 91 27 98 0 6 5 12 10 12 6
0 8 3 5 6 -4 3 5 38 19 77 13 40 26 77 27 82 2 6 6 17 9 25 4 8 23 62 42 120
20 58 40 114 44 125 10 22 85 217 86 225 1 3 7 19 14 35 7 17 19 46 26 65 28
75 94 229 116 271 12 24 21 45 21 46 -1 2 9 27 22 55 13 29 34 76 46 103 49
111 234 482 315 631 47 87 85 162 85 166 0 4 4 8 8 8 4 0 13 12 19 28 6 15 19
38 27 52 9 14 47 79 86 145 39 66 75 127 80 135 5 8 22 36 37 62 16 27 31 48
36 48 4 0 7 5 7 11 0 6 12 29 27 52 16 23 33 50 38 59 6 9 25 37 43 62 17 26
32 49 32 52 0 3 8 16 17 29 10 12 24 31 30 41 30 46 237 340 242 344 3 3 22
28 41 55 41 60 42 60 77 105 16 19 44 55 63 80 19 25 38 47 42 48 4 2 8 8 8
14 0 6 16 29 36 52 19 22 38 46 42 51 4 6 42 52 85 103 42 52 77 98 77 104 0
5 4 6 10 3 5 -3 10 -1 10 5 0 6 13 24 30 40 16 16 30 32 30 35 0 3 10 16 22
29 13 13 46 49 73 81 28 32 68 79 90 103 56 63 340 347 401 402 155 137 201
178 233 203 20 16 40 35 44 43 4 8 12 14 17 14 6 0 18 8 28 18 10 9 32 28 48
40 116 93 221 179 230 187 6 6 22 17 34 25 13 8 33 25 46 38 13 13 24 19 24
15 0 -4 4 -3 8 3 8 12 258 199 307 230 17 10 32 21 35 25 8 10 275 190 425
286 171 109 318 198 440 267 11 7 47 27 80 46 98 57 202 113 410 220 88 45
166 87 173 92 6 6 12 8 12 5 0 -3 48 19 108 48 59 29 141 67 182 85 41 18 97
43 124 56 28 13 53 24 57 24 4 0 40 15 81 34 40 18 96 41 123 51 28 11 53 24
57 29 4 6 8 8 8 5 0 -4 51 13 113 38 61 25 144 56 182 69 39 13 77 27 85 31 8
3 18 7 23 8 4 2 8 3 10 5 1 1 9 3 17 5 8 2 93 31 188 64 94 32 172 57 172 55
0 -3 14 2 30 11 17 9 30 13 30 10 0 -4 6 -3 13 2 6 4 17 8 22 10 6 1 48 13 95
28 47 14 93 27 102 30 9 2 52 13 95 26 43 12 83 22 88 24 6 1 17 5 25 8 8 3
38 11 65 17 58 14 67 16 120 30 22 6 51 13 65 16 14 3 41 9 60 14 19 5 46 11
60 14 14 2 52 11 85 19 33 9 74 18 90 20 17 3 75 15 131 26 105 22 111 24 184
37 25 4 47 8 50 9 10 2 95 17 125 21 17 2 41 7 55 9 14 3 41 7 60 10 19 2 62
8 95 14 33 5 83 12 110 16 28 3 61 8 75 10 26 4 95 12 170 21 25 3 59 7 75 9
17 2 62 7 100 10 39 4 86 8 105 10 19 2 78 7 130 10 52 4 113 9 135 10 22 2
105 7 185 11 80 3 147 8 149 10 2 2 7 2 10 0 3 -2 74 -7 156 -11z"/>
<path d="M7606 18421 c-22 -58 -45 -118 -53 -133 -7 -15 -14 -31 -14 -35 0 -5
-4 -12 -9 -18 -4 -5 -18 -44 -30 -85 -12 -41 -27 -86 -33 -100 -6 -14 -11 -28
-12 -32 -2 -5 -3 -9 -5 -10 -1 -2 -3 -10 -5 -18 -1 -8 -8 -35 -15 -60 -7 -25
-14 -52 -16 -60 -15 -68 -47 -198 -52 -210 -8 -22 -11 -41 -16 -81 -2 -21 -8
-59 -14 -85 -16 -70 -32 -187 -54 -384 -21 -197 -14 -750 13 -955 6 -44 12
-93 13 -110 2 -16 9 -61 15 -100 7 -38 14 -79 15 -90 10 -69 64 -329 86 -405
5 -19 26 -93 46 -165 19 -71 53 -182 75 -245 22 -63 41 -122 44 -130 11 -40
124 -329 159 -405 7 -16 29 -64 47 -105 37 -81 175 -357 229 -455 88 -161 159
-285 213 -368 20 -32 37 -60 37 -61 0 -4 123 -193 137 -212 4 -5 13 -17 18
-27 21 -35 205 -298 232 -332 4 -6 24 -33 43 -60 36 -52 38 -55 70 -94 11 -13
20 -27 20 -30 0 -3 14 -22 30 -41 38 -45 34 -40 110 -140 35 -47 69 -90 75
-97 5 -6 20 -24 32 -40 12 -15 31 -39 42 -53 11 -14 24 -29 28 -35 31 -39 92
-114 110 -135 20 -23 52 -62 71 -85 13 -17 193 -228 226 -266 50 -57 133 -152
153 -175 10 -12 52 -58 93 -104 41 -46 83 -92 92 -103 16 -18 151 -165 226
-246 239 -257 896 -921 1181 -1191 90 -85 189 -179 220 -209 31 -29 100 -94
154 -145 55 -50 118 -108 140 -130 37 -34 172 -157 231 -211 12 -11 62 -56
110 -100 122 -111 123 -112 206 -185 40 -36 81 -72 90 -80 9 -8 47 -42 85 -75
38 -33 77 -67 86 -75 26 -25 151 -135 188 -166 19 -16 41 -36 50 -44 10 -8 48
-42 86 -75 39 -32 77 -66 86 -75 10 -8 36 -31 59 -50 23 -19 52 -43 64 -55 13
-11 34 -29 47 -40 13 -11 128 -108 255 -215 127 -107 248 -208 269 -225 50
-41 105 -87 124 -105 9 -8 32 -26 51 -40 19 -14 42 -32 50 -40 9 -8 34 -29 56
-47 21 -17 73 -60 116 -95 42 -35 105 -85 140 -113 34 -27 68 -55 73 -61 6 -6
26 -22 45 -35 19 -13 40 -28 45 -34 6 -6 39 -34 74 -61 35 -27 82 -65 106 -84
23 -19 89 -71 145 -115 56 -44 122 -96 145 -116 24 -20 59 -46 79 -58 20 -13
36 -26 36 -30 0 -5 24 -25 53 -45 28 -20 84 -61 122 -91 39 -30 99 -76 134
-102 36 -26 76 -58 89 -70 13 -12 46 -36 73 -54 47 -30 63 -49 37 -45 -7 1
-20 6 -28 11 -8 5 -17 10 -20 10 -3 0 -50 22 -105 50 -55 27 -102 49 -105 50
-3 0 -25 11 -50 24 -25 13 -47 24 -50 23 -3 0 -13 7 -22 15 -10 9 -18 14 -18
11 0 -3 -28 10 -62 27 -35 18 -106 54 -158 81 -52 26 -103 54 -112 62 -10 8
-18 12 -18 9 0 -4 -22 7 -50 23 -27 16 -50 27 -50 24 0 -4 -6 -1 -14 5 -8 7
-38 25 -68 40 -29 16 -82 45 -118 64 -36 20 -76 41 -90 47 -14 6 -33 19 -42
27 -10 9 -18 13 -18 8 0 -4 -6 -3 -12 3 -7 5 -33 21 -58 35 -25 13 -67 37 -95
52 -27 16 -66 37 -85 47 -19 10 -53 30 -75 43 -22 13 -49 28 -60 33 -11 6 -60
33 -110 62 -103 60 -141 82 -189 109 -18 11 -64 38 -101 60 -37 23 -69 41 -72
41 -2 0 -24 14 -48 30 -24 17 -46 30 -50 30 -4 0 -26 14 -50 30 -24 17 -47 30
-52 30 -4 0 -26 14 -47 30 -22 17 -43 30 -48 30 -4 0 -30 16 -57 35 -26 19
-51 35 -55 35 -4 0 -34 18 -66 40 -32 22 -62 40 -65 40 -4 0 -32 18 -62 40
-31 22 -60 40 -65 40 -4 0 -40 23 -79 51 -39 28 -78 53 -88 56 -9 4 -54 33
-100 65 -46 33 -91 63 -100 66 -9 4 -96 62 -193 129 -97 68 -179 123 -183 123
-8 0 -229 155 -285 201 -25 20 -106 78 -180 129 -74 51 -148 105 -165 120 -16
15 -61 48 -100 75 -38 26 -74 53 -80 59 -5 6 -35 29 -65 51 -54 39 -143 107
-188 145 -13 11 -43 34 -68 52 -24 17 -44 34 -44 38 0 3 -14 14 -30 23 -17 10
-50 35 -74 55 -23 20 -60 51 -81 67 -20 17 -58 48 -84 69 -25 22 -53 45 -61
52 -101 83 -290 243 -306 259 -11 11 -44 40 -73 65 -64 55 -75 64 -186 165
-48 44 -98 89 -110 100 -376 339 -1071 1023 -1307 1286 -40 45 -192 211 -225
247 -18 18 -51 57 -75 85 -24 28 -56 65 -73 83 -16 18 -43 49 -60 70 -16 20
-35 42 -40 48 -16 17 -137 160 -160 187 -20 24 -90 112 -110 137 -5 7 -15 18
-20 25 -6 7 -26 32 -45 57 -19 25 -45 56 -57 70 -13 14 -23 28 -23 31 0 5 -8
16 -48 64 -22 26 -241 325 -272 370 -157 231 -251 373 -306 463 -35 59 -69
114 -74 122 -12 19 -65 111 -95 165 -12 22 -32 56 -43 75 -32 53 -52 91 -139
265 -106 211 -203 418 -203 431 0 3 -7 22 -16 42 -28 64 -35 82 -90 222 -28
72 -86 246 -89 267 -2 12 -6 27 -10 34 -4 6 -11 25 -16 43 -4 17 -15 56 -24
86 -25 85 -85 329 -90 366 -2 18 -9 52 -16 76 -10 39 -19 94 -48 308 -8 59
-14 118 -27 280 -11 130 -5 538 10 695 10 106 17 162 22 185 3 14 8 43 10 65
2 22 10 67 18 100 8 33 16 78 17 100 2 22 5 45 8 50 3 6 7 20 8 32 2 11 12 54
23 95 27 98 51 189 56 213 2 10 10 33 18 50 17 36 31 115 20 115 -4 0 -12 -6
-18 -14 -6 -8 -42 -39 -81 -70 -88 -70 -85 -68 -115 -87 -14 -9 -42 -33 -63
-53 -21 -20 -42 -36 -47 -36 -5 0 -15 -6 -22 -13 -7 -7 -20 -18 -29 -23 -9 -5
-36 -26 -60 -46 -24 -20 -75 -62 -114 -94 -83 -67 -358 -342 -400 -399 -27
-36 -111 -139 -169 -205 -46 -53 -135 -167 -171 -219 -41 -60 -51 -72 -145
-171 -36 -38 -70 -75 -76 -82 -11 -12 -26 -25 -109 -93 -20 -16 -55 -47 -78
-67 -23 -21 -50 -40 -59 -43 -10 -4 -18 -10 -18 -14 0 -4 -11 -13 -25 -19 -26
-12 -40 -22 -76 -55 -11 -10 -43 -33 -72 -51 -29 -19 -71 -51 -94 -73 -23 -21
-53 -47 -67 -58 -34 -27 -146 -126 -160 -143 -6 -8 -38 -42 -71 -76 -33 -35
-82 -89 -110 -121 -27 -32 -60 -70 -73 -84 -42 -48 -102 -130 -102 -140 0 -5
-10 -18 -23 -28 -13 -10 -40 -43 -60 -75 -21 -31 -44 -62 -52 -68 -8 -7 -15
-16 -15 -21 0 -5 -36 -58 -80 -119 -44 -61 -80 -113 -80 -116 0 -4 -13 -23
-29 -43 -27 -34 -138 -192 -218 -311 -33 -49 -67 -105 -63 -105 1 0 -4 -13
-10 -29 -6 -16 -13 -45 -16 -65 -3 -20 -10 -44 -16 -54 -13 -26 -16 -46 -22
-145 -2 -48 0 -112 6 -142 5 -30 11 -64 13 -75 5 -36 100 -219 156 -303 16
-24 29 -45 29 -48 0 -3 4 -10 10 -17 5 -7 26 -32 46 -57 20 -25 43 -54 52 -65
10 -11 55 -67 102 -125 47 -58 88 -107 91 -110 3 -3 41 -50 85 -105 43 -55 84
-105 89 -112 22 -26 33 -41 92 -118 58 -77 121 -144 214 -231 45 -41 261 -195
291 -206 30 -12 163 -110 190 -141 33 -38 41 -76 26 -131 -10 -39 -9 -47 13
-82 13 -21 33 -50 44 -62 27 -32 137 -110 178 -126 17 -7 41 -17 52 -21 11 -5
24 -7 29 -6 4 1 13 -2 20 -7 19 -15 108 -14 176 2 127 30 228 -4 259 -86 8
-20 6 -34 -8 -62 -10 -19 -21 -45 -24 -56 -6 -24 14 -101 32 -122 40 -47 62
-67 107 -101 29 -20 54 -37 57 -37 3 0 18 -5 34 -12 48 -19 56 -20 146 -22 61
-1 90 3 96 12 10 16 130 24 176 11 78 -22 129 -118 126 -237 -1 -23 6 -56 14
-72 9 -17 13 -30 10 -30 -8 0 23 -47 63 -98 87 -110 268 -175 377 -137 78 26
139 -10 175 -104 24 -62 52 -123 60 -131 3 -3 18 -23 35 -45 56 -75 120 -138
195 -189 41 -28 77 -51 80 -52 3 0 16 -5 30 -11 14 -6 28 -10 31 -9 3 0 13 -5
22 -12 24 -20 133 -28 152 -12 18 15 125 23 140 10 5 -5 13 -9 18 -9 4 -1 22
-11 41 -23 46 -30 94 -106 106 -168 11 -59 29 -94 67 -135 27 -29 135 -112
140 -108 1 1 24 -8 50 -19 27 -12 55 -23 63 -25 9 -1 42 -8 75 -16 80 -18 219
-14 241 7 16 16 19 17 68 20 35 2 82 -39 91 -80 9 -42 36 -105 57 -133 10 -13
18 -30 18 -37 0 -8 4 -14 8 -14 4 0 15 -13 25 -29 24 -42 144 -161 199 -199
51 -35 167 -91 202 -98 12 -2 51 -6 86 -8 110 -7 202 -53 236 -118 18 -35 18
-63 -2 -119 -11 -30 -14 -58 -10 -81 25 -136 337 -338 520 -338 29 0 57 -5 64
-12 7 -7 12 -9 12 -5 0 4 15 0 33 -10 17 -9 35 -16 39 -15 4 1 25 -19 47 -44
45 -51 59 -98 43 -144 -11 -31 1 -75 30 -110 25 -29 115 -89 179 -118 86 -40
96 -43 214 -68 17 -3 35 -9 40 -13 6 -3 12 -6 15 -6 9 -1 75 -36 91 -48 36
-28 51 -101 27 -133 -16 -22 23 -89 90 -154 93 -90 193 -168 252 -198 14 -7
44 -23 68 -36 65 -37 119 -54 190 -61 43 -4 56 3 106 51 34 32 116 21 156 -21
28 -30 40 -116 19 -141 -39 -47 -8 -118 100 -225 87 -86 235 -179 361 -228 25
-10 54 -21 65 -26 33 -13 38 -14 132 -30 55 -9 163 -85 163 -115 0 -9 40 -76
65 -108 23 -29 125 -129 165 -162 24 -19 51 -42 60 -51 22 -21 107 -79 115
-79 4 0 19 -8 33 -18 43 -30 142 -82 142 -75 0 4 5 2 12 -5 7 -7 18 -12 24
-12 7 0 25 -5 41 -11 15 -7 44 -14 63 -16 19 -2 36 -6 38 -8 3 -2 14 1 26 7
37 21 172 24 241 7 72 -18 137 -96 129 -154 -8 -51 87 -156 203 -223 91 -53
286 -140 295 -131 2 1 13 -3 26 -10 12 -7 38 -14 57 -16 19 -3 52 -9 72 -13
74 -16 201 0 223 28 23 30 142 63 177 49 18 -7 78 -84 65 -84 -2 0 2 -13 8
-29 6 -16 12 -43 15 -62 6 -50 29 -86 89 -141 44 -40 107 -81 136 -88 3 -1 12
-4 20 -7 55 -21 90 -27 170 -25 49 0 90 4 90 8 0 3 18 9 40 13 22 3 50 14 61
24 12 9 36 29 53 43 91 77 210 123 290 113 20 -2 54 -16 75 -30 47 -31 56 -67
29 -126 -11 -25 -17 -52 -13 -67 6 -25 55 -76 95 -99 64 -38 90 -51 90 -46 0
4 7 1 15 -6 8 -7 15 -10 15 -7 0 3 15 0 33 -7 17 -8 64 -19 103 -26 80 -13
264 -19 264 -9 0 4 20 10 44 13 34 5 52 16 82 49 37 40 60 56 126 87 66 31
184 -22 208 -94 25 -78 113 -117 264 -116 97 1 235 23 246 40 3 4 14 10 25 12
11 1 22 5 25 9 30 32 235 99 260 84 5 -3 11 -1 15 5 3 5 16 9 28 9 12 -1 58 4
102 11 44 6 97 13 118 16 77 8 291 62 372 94 11 4 36 14 55 21 19 7 37 16 40
19 3 3 24 12 48 20 23 7 42 16 42 20 0 4 21 15 48 25 26 10 49 21 52 24 6 7
67 48 125 84 22 13 60 42 83 63 24 22 57 50 74 64 46 37 117 114 157 169 62
86 96 132 111 157 8 13 34 49 56 81 23 32 42 60 42 63 -1 3 15 39 34 80 34 73
50 110 52 120 1 3 5 11 9 18 5 6 5 12 1 12 -4 0 0 8 9 18 16 18 147 402 147
432 0 10 6 33 14 51 8 19 17 60 19 92 3 31 8 61 11 66 8 13 9 188 1 234 -18
106 -84 223 -182 322 -39 39 -79 77 -89 86 -10 8 -40 33 -65 55 -26 21 -64 53
-84 69 -48 38 -250 209 -268 227 -8 7 -43 39 -78 70 -35 31 -118 110 -185 175
-66 65 -153 147 -194 183 -41 36 -84 74 -96 85 -13 11 -39 34 -60 50 -20 17
-47 39 -60 50 -12 11 -41 36 -65 55 -23 19 -90 75 -148 124 -58 48 -123 102
-144 120 -21 17 -48 40 -61 51 -13 11 -42 36 -66 55 -23 19 -52 44 -65 55 -12
11 -33 29 -46 40 -46 38 -165 140 -204 175 -54 49 -158 142 -171 155 -6 5 -51
46 -99 90 -48 44 -163 153 -254 242 l-166 161 -23 -51 c-13 -29 -30 -59 -37
-67 -8 -8 -14 -19 -15 -25 -4 -19 -22 -61 -64 -150 -24 -49 -49 -106 -56 -125
-7 -19 -19 -42 -25 -50 -13 -15 -105 -204 -105 -214 0 -3 -12 -31 -27 -63 -15
-32 -27 -61 -28 -66 0 -4 -12 -22 -26 -40 -14 -17 -28 -39 -31 -47 -3 -9 -32
-29 -64 -45 -50 -26 -70 -30 -134 -30 -41 0 -86 5 -100 12 -14 6 -28 10 -32 9
-14 -2 -90 80 -110 119 -12 22 -23 56 -25 75 -2 19 -5 36 -7 38 -8 7 17 90 45
151 17 36 40 91 52 121 11 30 29 71 40 90 31 53 86 159 88 168 6 31 93 214
119 252 10 14 18 27 18 30 1 11 25 68 52 125 16 33 30 71 32 85 2 14 7 31 11
37 11 18 -11 130 -35 177 -21 41 -122 171 -166 214 -14 13 -35 27 -47 32 -46
17 -112 -18 -138 -72 -34 -74 -69 -145 -87 -178 -11 -19 -31 -62 -46 -95 -98
-224 -108 -237 -228 -298 -27 -13 -144 -18 -151 -6 -4 5 -10 7 -15 4 -14 -9
-86 31 -120 67 -37 40 -67 101 -73 150 -5 41 12 121 38 183 32 77 78 170 90
185 6 8 24 44 39 80 49 112 117 258 142 300 106 183 103 352 -10 505 -12 17
-30 48 -41 69 -30 59 -97 126 -126 126 -38 0 -85 -48 -115 -120 -15 -36 -33
-72 -40 -80 -6 -8 -28 -51 -49 -95 -75 -161 -87 -183 -113 -212 -96 -105 -270
-115 -377 -21 -64 57 -103 154 -90 227 12 70 62 187 137 321 14 25 29 56 33
70 12 39 104 228 114 235 5 3 15 22 22 43 6 20 26 69 45 107 18 39 33 73 34
77 0 4 7 26 15 49 24 67 19 178 -11 267 -15 42 -32 88 -40 102 -7 14 -30 69
-51 122 -20 54 -48 109 -60 123 -27 28 -80 34 -89 10 -4 -8 -11 -12 -18 -8 -6
3 -8 3 -4 -2 4 -4 -1 -20 -11 -34 -27 -40 -112 -230 -112 -251 0 -3 -8 -13
-16 -22 -9 -10 -13 -18 -9 -18 4 0 -3 -15 -16 -32 -13 -18 -23 -35 -24 -38 0
-3 -13 -32 -28 -65 -31 -67 -49 -107 -50 -115 -7 -42 -136 -141 -190 -147 -64
-6 -113 -3 -142 8 -16 7 -32 12 -35 11 -4 -1 -25 15 -48 34 -62 53 -93 113
-97 187 -4 65 4 99 42 185 13 29 24 56 24 61 0 4 9 16 20 26 10 9 19 20 18 24
-1 3 10 31 24 61 14 30 35 76 47 103 11 26 30 66 40 90 11 23 20 47 21 52 1 6
8 17 15 25 18 20 119 234 125 265 1 6 8 17 15 25 7 8 14 18 14 23 0 4 13 31
28 60 15 28 28 54 28 57 1 3 15 33 32 68 17 34 29 62 26 62 -4 0 1 8 10 18 8
9 16 20 16 25 1 16 54 123 69 141 10 10 16 19 14 20 -2 0 1 13 7 28 6 17 7 58
1 115 -5 48 -11 151 -15 228 -10 229 -22 406 -32 475 -2 19 -5 42 -5 50 0 8
-7 71 -15 140 -8 69 -16 139 -18 155 -2 17 -8 59 -14 95 -5 36 -12 85 -15 110
-3 25 -12 70 -20 100 -7 30 -17 73 -21 95 -11 66 -55 245 -82 330 -63 205
-153 399 -246 525 -50 70 -190 204 -237 227 -19 10 -42 23 -50 28 -19 14 -126
60 -165 71 -151 44 -334 49 -465 14 -22 -6 -45 -8 -50 -5 -5 3 -11 1 -14 -4
-3 -4 -18 -11 -34 -14 -37 -8 -180 -75 -213 -101 -14 -12 -37 -28 -50 -36 -34
-22 -120 -115 -147 -158 -12 -20 -40 -75 -63 -122 -22 -47 -44 -93 -50 -102
-5 -10 -9 -24 -9 -32 0 -7 -7 -19 -15 -26 -9 -7 -13 -15 -10 -18 3 -3 1 -10
-4 -16 -6 -7 -12 -23 -15 -36 -2 -14 -14 -51 -25 -82 -11 -32 -17 -58 -14 -58
3 0 -1 -7 -8 -16 -7 -9 -14 -21 -15 -28 -1 -6 -5 -24 -9 -41 -3 -16 -8 -46
-11 -65 -3 -19 -9 -48 -14 -63 -5 -15 -9 -110 -8 -210 3 -229 -5 -270 -59
-332 -27 -30 -102 -65 -153 -70 -109 -12 -141 -14 -235 -20 -377 -21 -723 -21
-1000 0 -187 14 -198 15 -315 30 -131 17 -202 27 -225 32 -11 2 -29 5 -40 7
-11 2 -33 6 -50 9 -16 4 -46 9 -65 12 -19 3 -78 17 -130 30 -52 13 -106 26
-120 29 -90 18 -380 113 -490 162 -3 1 -15 5 -28 9 -64 21 -305 153 -395 216
-106 75 -118 85 -195 159 -126 122 -213 272 -248 422 -12 49 -16 218 -7 230
10 13 20 46 30 97 2 14 12 50 22 80 20 61 62 231 67 271 3 29 11 63 19 90 3
11 10 50 15 87 13 100 19 142 30 198 25 130 34 517 15 655 -3 25 -8 61 -10 80
-4 46 -22 124 -41 180 -15 45 -71 161 -83 170 -3 3 -22 25 -42 50 -73 91 -261
260 -289 260 -5 0 -32 14 -60 30 -28 17 -55 30 -60 30 -5 0 -21 5 -37 11 -15
7 -37 13 -48 15 -11 2 -45 9 -75 17 l-56 13 -38 -105z"/>
<path d="M5945 9127 c-15 -34 -43 -95 -61 -135 -19 -41 -34 -75 -34 -77 0 -2
-18 -43 -40 -90 -22 -47 -40 -88 -40 -90 0 -2 -15 -37 -34 -77 -18 -40 -52
-113 -74 -163 -22 -49 -72 -160 -110 -245 -87 -194 -105 -234 -106 -240 -1 -3
-14 -32 -29 -64 -20 -44 -24 -61 -15 -67 6 -4 48 -17 92 -28 45 -12 131 -34
191 -51 103 -28 154 -42 388 -105 50 -13 160 -43 242 -65 232 -63 350 -95 480
-129 66 -18 143 -38 170 -46 28 -8 151 -42 275 -75 124 -33 248 -67 275 -75
43 -12 780 -211 934 -251 29 -8 92 -25 140 -39 47 -13 129 -35 181 -49 52 -13
221 -59 375 -101 154 -42 332 -90 395 -106 63 -17 169 -45 235 -63 66 -19 134
-37 150 -41 17 -5 35 -9 40 -11 15 -4 277 -75 295 -80 8 -2 76 -20 150 -40 74
-20 149 -40 165 -44 17 -5 71 -19 120 -33 227 -62 600 -162 695 -188 117 -31
565 -152 650 -176 56 -15 113 -31 140 -37 8 -2 116 -31 240 -65 124 -33 261
-70 305 -82 44 -12 91 -25 105 -29 14 -5 88 -25 165 -45 77 -21 143 -39 148
-42 4 -2 7 -2 7 2 0 3 -19 14 -42 24 -24 10 -104 48 -178 83 -137 66 -221 106
-365 173 -44 21 -132 62 -195 92 -153 73 -494 235 -855 406 -99 46 -234 111
-300 142 -66 32 -151 72 -190 90 -145 68 -265 125 -408 194 -82 39 -150 71
-151 71 -2 0 -92 43 -200 95 -108 52 -198 95 -200 95 -3 0 -73 33 -158 74 -84
40 -178 85 -208 99 -30 14 -113 53 -185 87 -227 109 -358 171 -420 200 -57 27
-148 69 -335 158 -47 22 -156 74 -244 116 -87 42 -160 76 -161 76 -2 0 -79 36
-171 81 -93 45 -196 94 -229 109 -71 33 -226 106 -385 182 -63 31 -135 64
-160 76 -25 11 -125 59 -224 106 -98 47 -179 86 -181 86 -3 0 -55 25 -423 201
-79 38 -145 69 -147 69 -2 0 -77 35 -166 79 -90 43 -191 91 -224 106 -33 15
-63 29 -66 31 -4 2 -19 -24 -34 -59z"/>
<path d="M3706 5528 c-22 -90 -45 -188 -52 -218 -7 -30 -24 -99 -37 -153 -13
-53 -22 -99 -18 -101 3 -2 353 -2 776 0 424 1 1659 5 2745 8 4969 15 7381 23
7388 25 2 1 -15 18 -37 39 -27 25 -51 38 -69 39 -41 0 -330 14 -577 27 -49 3
-146 8 -215 11 -69 3 -165 7 -215 10 -299 16 -450 23 -600 30 -71 3 -161 8
-200 10 -38 3 -124 7 -190 10 -66 2 -154 7 -195 9 -41 3 -140 8 -220 11 -80 3
-176 8 -215 10 -65 4 -132 7 -405 20 -58 3 -141 7 -185 10 -44 2 -138 7 -210
10 -71 4 -159 8 -195 10 -36 2 -128 6 -205 10 -77 3 -167 8 -200 10 -33 2
-125 7 -205 10 -80 3 -174 7 -210 10 -36 3 -119 7 -185 10 -66 3 -156 8 -200
10 -44 2 -143 7 -220 10 -77 4 -164 8 -193 10 -29 2 -124 6 -210 10 -86 4
-182 8 -212 10 -30 2 -113 6 -185 10 -139 6 -245 12 -390 20 -49 2 -151 7
-225 10 -74 4 -166 8 -205 10 -38 2 -126 7 -195 10 -69 3 -159 8 -200 10 -41
2 -129 7 -195 10 -66 3 -160 7 -210 10 -49 2 -142 7 -205 10 -63 3 -151 8
-195 10 -44 3 -129 7 -190 10 -60 2 -155 7 -210 10 -261 13 -318 16 -420 20
-60 3 -146 7 -190 10 -76 4 -174 9 -415 20 -58 3 -139 7 -180 9 -41 3 -140 8
-220 11 -80 3 -165 8 -190 10 -25 2 -112 7 -195 10 -82 4 -179 8 -215 10 -36
2 -132 6 -215 10 l-150 6 -39 -163z"/>
</g>
</svg>
